<svg width="15" height="15" viewBox="0 0 15 15" fill="none" xmlns="http://www.w3.org/2000/svg">
<g clip-path="url(#clip0_1_206)">
<path d="M7.5 0C6.01664 0 4.56659 0.439867 3.33322 1.26398C2.09985 2.08809 1.13856 3.25943 0.570899 4.62987C0.00324202 6.00032 -0.145283 7.50832 0.144106 8.96318C0.433495 10.418 1.1478 11.7544 2.19669 12.8033C3.24559 13.8522 4.58196 14.5665 6.03682 14.8559C7.49168 15.1453 8.99968 14.9968 10.3701 14.4291C11.7406 13.8614 12.9119 12.9001 13.736 11.6668C14.5601 10.4334 15 8.98336 15 7.5C14.9978 5.51154 14.207 3.60513 12.8009 2.19907C11.3949 0.793018 9.48846 0.00215068 7.5 0V0ZM7.5 13.75C6.26386 13.75 5.05549 13.3834 4.02768 12.6967C2.99987 12.0099 2.1988 11.0338 1.72575 9.89177C1.2527 8.74973 1.12893 7.49307 1.37009 6.28069C1.61125 5.06831 2.2065 3.95466 3.08058 3.08058C3.95466 2.2065 5.0683 1.61125 6.28068 1.37009C7.49306 1.12893 8.74973 1.25271 9.89177 1.72575C11.0338 2.1988 12.0099 2.99988 12.6967 4.02769C13.3834 5.05549 13.75 6.26387 13.75 7.5C13.7482 9.15705 13.0891 10.7457 11.9174 11.9174C10.7457 13.0891 9.15704 13.7482 7.5 13.75Z" fill="#6B7280"/>
<path d="M9.71011 5.29C9.82799 5.40385 9.98586 5.46685 10.1497 5.46542C10.3136 5.464 10.4704 5.39827 10.5862 5.28239C10.7021 5.16651 10.7679 5.00975 10.7693 4.84588C10.7707 4.682 10.7077 4.52413 10.5939 4.40625C9.98199 3.79444 9.20244 3.37781 8.35378 3.20903C7.50513 3.04026 6.62548 3.12693 5.82608 3.45807C5.02668 3.78922 4.34343 4.34997 3.86272 5.06943C3.38201 5.78888 3.12543 6.63473 3.12543 7.5C3.12543 8.36528 3.38201 9.21112 3.86272 9.93058C4.34343 10.65 5.02668 11.2108 5.82608 11.5419C6.62548 11.8731 7.50513 11.9597 8.35378 11.791C9.20244 11.6222 9.98199 11.2056 10.5939 10.5938C10.7077 10.4759 10.7707 10.318 10.7693 10.1541C10.7679 9.99025 10.7021 9.8335 10.5862 9.71762C10.4704 9.60174 10.3136 9.53601 10.1497 9.53458C9.98586 9.53316 9.82799 9.59615 9.71011 9.71C9.27304 10.147 8.71622 10.4445 8.11005 10.565C7.50388 10.6855 6.87559 10.6236 6.30462 10.387C5.73365 10.1505 5.24564 9.74996 4.90229 9.23607C4.55895 8.72219 4.37569 8.11803 4.37569 7.5C4.37569 6.88197 4.55895 6.27782 4.90229 5.76393C5.24564 5.25005 5.73365 4.84951 6.30462 4.61296C6.87559 4.37641 7.50388 4.31448 8.11005 4.43499C8.71622 4.5555 9.27304 4.85305 9.71011 5.29Z" fill="#6B7280"/>
</g>
<defs>
<clipPath id="clip0_1_206">
<rect width="15" height="15" fill="white"/>
</clipPath>
</defs>
</svg>
