<svg width="35" height="27" viewBox="0 0 35 27" fill="none" xmlns="http://www.w3.org/2000/svg">
<path d="M0 26.1373V7.4678H0.336051L3.24849 14.5622V26.1373H0ZM0 2.05365V0H2.65107L11.239 20.7978L17.3626 6.94506H17.736V14.1888L12.4712 26.1373H10.0069L0 2.05365ZM19.603 26.1373V0H22.8515V26.1373H19.603Z" fill="#FF7A00"/>
<path d="M18.9442 26.1373V0H22.1927V26.1373H18.9442ZM24.0597 26.1746V23.2622H26.0386C27.4575 23.2622 28.6524 22.9759 29.6232 22.4034C31.0421 21.5073 31.7515 20.188 31.7515 18.4455C31.7515 18.0223 31.7017 17.624 31.6021 17.2506C31.1292 15.4086 29.7228 14.4875 27.3828 14.4875H24.0597V11.5751H27.3828C27.806 11.5751 28.2043 11.5378 28.5777 11.4631C30.6438 11.0897 31.6768 9.82016 31.6768 7.6545C31.6768 6.90772 31.5026 6.18583 31.1541 5.48883C30.3077 3.77124 28.8266 2.91244 26.7107 2.91244H24.0597V0H27.0841C29.2996 0 31.1043 0.609871 32.4983 1.82961C34.1163 3.24849 34.9253 5.12789 34.9253 7.4678C34.9253 7.79141 34.9004 8.12746 34.8506 8.47596C34.6017 10.4674 33.7678 11.9858 32.3489 13.0313C34.0914 14.3755 34.9751 16.2425 35 18.6322C35 20.2502 34.5644 21.7064 33.6931 23.0008C32.2494 25.1167 30.0712 26.1746 27.1588 26.1746H24.0597Z" fill="#FF7A00"/>
</svg>
